<svg width="52" height="59" viewBox="0 0 52 59" fill="none" xmlns="http://www.w3.org/2000/svg">
<path d="M17.6838 51.8193V52.7877L16.8262 52.358" stroke="#FF0000" stroke-width="1.5" stroke-linecap="round" stroke-linejoin="round"/>
<path d="M15.1388 51.5081L2.47656 45.1377" stroke="#FF0000" stroke-width="1.5" stroke-linecap="round" stroke-linejoin="round" stroke-dasharray="1 3"/>
<path d="M1.63111 44.7105L0.773438 44.2808V43.3125" stroke="#FF0000" stroke-width="1.5" stroke-linecap="round" stroke-linejoin="round"/>
<path d="M0.773438 41.3543V14.9385" stroke="#FF0000" stroke-width="1.5" stroke-linecap="round" stroke-linejoin="round" stroke-dasharray="6.28 6.28"/>
<path d="M0.773438 13.9576V12.9893L1.63111 13.4189" stroke="#FF0000" stroke-width="1.5" stroke-linecap="round" stroke-linejoin="round"/>
<path d="M3.31836 14.2695L15.9806 20.64" stroke="#FF0000" stroke-width="1.5" stroke-linecap="round" stroke-linejoin="round" stroke-dasharray="1 3"/>
<path d="M16.8262 21.0664L17.6838 21.4961V22.4675" stroke="#FF0000" stroke-width="1.5" stroke-linecap="round" stroke-linejoin="round"/>
<path d="M17.6836 24.4219V50.8408" stroke="#FF0000" stroke-width="1.5" stroke-linecap="round" stroke-linejoin="round" stroke-dasharray="1 3"/>
<path d="M25.7763 32.0427L0.75 44.2823V12.9906L25.7763 0.750977V32.0427Z" stroke="#FF0000" stroke-width="1.5" stroke-miterlimit="10" stroke-linecap="round" stroke-linejoin="round"/>
<path d="M50.8017 44.2814V12.9896L25.7754 0.75V32.0418L32.1972 35.1834" stroke="#FF0000" stroke-width="1.5" stroke-miterlimit="10" stroke-linecap="round" stroke-linejoin="round"/>
<path d="M23.834 57.305L48.8603 45.0654" stroke="#FF0000" stroke-width="1.5" stroke-miterlimit="10" stroke-linecap="round" stroke-linejoin="round" stroke-dasharray="1 3"/>
<path d="M17.6855 52.6787L30.6675 46.3301" stroke="#FF0000" stroke-width="1.5" stroke-miterlimit="10" stroke-linecap="round" stroke-linejoin="round" stroke-dasharray="1 3"/>
<path d="M42.7129 25.6617V11.5166" stroke="#FF0000" stroke-width="1.5" stroke-miterlimit="10" stroke-linecap="round" stroke-linejoin="round" stroke-dasharray="1 3"/>
<path d="M32.1973 44.7643L39.8672 48.513V35.8064L32.1973 32.0576V44.7643Z" stroke="#FF0000" stroke-width="1.5" stroke-miterlimit="10" stroke-linecap="round" stroke-linejoin="round"/>
<path d="M32.1973 32.0571L42.7107 27.6016L50.8018 31.1386L39.8672 35.8059" stroke="#FF0000" stroke-width="1.5" stroke-miterlimit="10" stroke-linecap="round" stroke-linejoin="round"/>
</svg>
