<svg width="55" height="45" viewBox="0 0 55 45" fill="none" xmlns="http://www.w3.org/2000/svg">
<path d="M36.5833 0.75H0.75V31.8056H36.5833V0.75Z" stroke="#FF0000" stroke-width="1.5" stroke-linecap="round" stroke-linejoin="round"/>
<path d="M36.584 12.6943H46.1395L53.3062 19.861V31.8054H36.584V12.6943Z" stroke="#FF0000" stroke-width="1.5" stroke-linecap="round" stroke-linejoin="round"/>
<path d="M11.4996 43.7501C14.7979 43.7501 17.4718 41.0763 17.4718 37.7779C17.4718 34.4795 14.7979 31.8057 11.4996 31.8057C8.2012 31.8057 5.52734 34.4795 5.52734 37.7779C5.52734 41.0763 8.2012 43.7501 11.4996 43.7501Z" stroke="#FF0000" stroke-width="1.5" stroke-linecap="round" stroke-linejoin="round"/>
<path d="M42.5562 43.7501C45.8546 43.7501 48.5284 41.0763 48.5284 37.7779C48.5284 34.4795 45.8546 31.8057 42.5562 31.8057C39.2578 31.8057 36.584 34.4795 36.584 37.7779C36.584 41.0763 39.2578 43.7501 42.5562 43.7501Z" stroke="#FF0000" stroke-width="1.5" stroke-linecap="round" stroke-linejoin="round"/>
</svg>
